<svg viewBox="0 0 10 4" fill="none" xmlns="http://www.w3.org/2000/svg">
<path d="M0.64641 3.09302C0.64641 3.17061 0.654577 3.22369 0.670911 3.26044C0.683162 3.29719 0.711746 3.3217 0.756664 3.32986C0.797499 3.3462 0.862835 3.35028 0.956755 3.35028H1.34877C1.51211 3.35028 1.64686 3.30128 1.75303 3.19919C1.85512 3.10119 1.92454 2.96643 1.95721 2.79493C1.95721 2.78676 1.96537 2.78268 1.98171 2.78268C1.99396 2.78676 2.00213 2.79084 2.00213 2.79901C1.97762 3.03177 1.96537 3.22369 1.96537 3.37886C1.96537 3.39928 1.96129 3.41562 1.95312 3.42378C1.94496 3.43603 1.92862 3.44012 1.90412 3.44012H0.00938766C0.00530418 3.44012 0.0012207 3.43195 0.0012207 3.41562C0.0012207 3.39928 0.00530418 3.39111 0.00938766 3.39111C0.111475 3.39111 0.184977 3.38295 0.229895 3.3707C0.274814 3.35845 0.307482 3.32986 0.323815 3.28903C0.340149 3.25228 0.348316 3.19102 0.348316 3.10935V1.2187C0.348316 1.13703 0.340149 1.07578 0.323815 1.03903C0.307482 1.00228 0.274814 0.973695 0.229895 0.957361C0.184977 0.945111 0.111475 0.936944 0.00938766 0.936944C0.00530418 0.936944 0.0012207 0.928777 0.0012207 0.912443C0.0012207 0.896109 0.00530418 0.887942 0.00938766 0.887942L0.213562 0.892025C0.327899 0.896109 0.421819 0.900192 0.495322 0.900192C0.572908 0.900192 0.670911 0.896109 0.785249 0.892025L0.985339 0.887942C0.989422 0.887942 0.993506 0.896109 0.993506 0.912443C0.993506 0.928777 0.989422 0.936944 0.985339 0.936944C0.887336 0.936944 0.813833 0.945111 0.768915 0.957361C0.719913 0.973695 0.687245 1.00228 0.670911 1.03903C0.654577 1.07987 0.64641 1.14112 0.64641 1.22279V3.09302Z" fill="black"/>
<path d="M2.54548 1.36165C2.48423 1.36165 2.43931 1.34532 2.40664 1.31265C2.36989 1.27998 2.35356 1.23507 2.35356 1.17381C2.35356 1.12073 2.36989 1.07581 2.40664 1.04314C2.43931 1.01047 2.48423 0.99414 2.54548 0.99414C2.60265 0.99414 2.64757 1.01047 2.68023 1.04314C2.7129 1.07581 2.72924 1.12073 2.72924 1.17381C2.72924 1.23507 2.7129 1.27998 2.68023 1.31265C2.64757 1.34532 2.60265 1.36165 2.54548 1.36165ZM2.1943 3.44014C2.18613 3.44014 2.18205 3.43198 2.18205 3.41564C2.18205 3.39931 2.18613 3.39114 2.1943 3.39114C2.29639 3.39114 2.36172 3.37072 2.39439 3.33397C2.42706 3.29722 2.44339 3.22372 2.44339 3.10938V2.34985C2.44339 2.25593 2.43523 2.18652 2.41481 2.1416C2.39439 2.09668 2.36172 2.07626 2.31272 2.07626C2.2678 2.07626 2.20655 2.09668 2.13305 2.13343H2.12896C2.11671 2.13343 2.10855 2.12526 2.10446 2.11301C2.10038 2.10076 2.10038 2.08851 2.11263 2.08443L2.65573 1.83125L2.67207 1.82717C2.68023 1.82717 2.6884 1.83125 2.70065 1.83942C2.70882 1.84759 2.7129 1.85575 2.7129 1.86392C2.7129 1.88434 2.7129 1.93742 2.70882 2.02726C2.70474 2.1171 2.70474 2.22327 2.70474 2.34577V3.10938C2.70474 3.18697 2.7129 3.24822 2.72515 3.28497C2.7374 3.32581 2.75782 3.35439 2.79457 3.36664C2.83132 3.38297 2.88441 3.39114 2.95383 3.39114C2.96199 3.39114 2.96608 3.39931 2.96608 3.41564C2.96608 3.43198 2.96199 3.44014 2.95383 3.44014C2.88441 3.44014 2.83132 3.44014 2.79457 3.43606L2.57406 3.43198L2.34539 3.43606C2.30864 3.44014 2.25555 3.44014 2.1943 3.44014Z" fill="black"/>
<path d="M5.05669 3.3911C5.06486 3.3911 5.06894 3.39927 5.06894 3.4156C5.06894 3.43194 5.06486 3.4401 5.05669 3.4401C4.98727 3.4401 4.93418 3.4401 4.89743 3.43602L4.67692 3.43194L4.45642 3.43602C4.41967 3.4401 4.36658 3.4401 4.30124 3.4401C4.29308 3.4401 4.28899 3.43194 4.28899 3.4156C4.28899 3.39927 4.29308 3.3911 4.30124 3.3911C4.37066 3.3911 4.42375 3.38293 4.4605 3.3666C4.49317 3.35435 4.51767 3.32577 4.52992 3.28493C4.54217 3.24818 4.54625 3.18693 4.54625 3.10934V2.46007C4.54625 2.30081 4.51767 2.18648 4.4605 2.10889C4.39925 2.03539 4.30533 1.99864 4.17874 1.99864C4.10115 1.99864 4.01948 2.01905 3.93782 2.05989C3.85206 2.10072 3.77856 2.15789 3.70914 2.23139V3.10934C3.70914 3.18693 3.71731 3.24818 3.72956 3.28493C3.73772 3.32577 3.76223 3.35435 3.79898 3.3666C3.83573 3.38293 3.88881 3.3911 3.95823 3.3911C3.9664 3.3911 3.97048 3.39927 3.97048 3.4156C3.97048 3.43194 3.9664 3.4401 3.95823 3.4401C3.88881 3.4401 3.83573 3.4401 3.79898 3.43602L3.57847 3.43194L3.35796 3.43602C3.32121 3.4401 3.26812 3.4401 3.20279 3.4401C3.19462 3.4401 3.19054 3.43194 3.19054 3.4156C3.19054 3.39927 3.19462 3.3911 3.20279 3.3911C3.27221 3.3911 3.32529 3.38293 3.36204 3.3666C3.39471 3.35435 3.41513 3.32577 3.43146 3.28493C3.43963 3.24818 3.4478 3.18693 3.4478 3.10934V2.30898C3.4478 2.21914 3.43555 2.15381 3.41513 2.11297C3.39471 2.07214 3.35796 2.05172 3.30896 2.05172C3.26812 2.05172 3.19462 2.07214 3.09254 2.11297H3.08845C3.0762 2.11297 3.06803 2.10481 3.06395 2.09256C3.05987 2.0803 3.05987 2.07214 3.07212 2.06805L3.56214 1.83121L3.58664 1.82713C3.61522 1.82713 3.63972 1.85571 3.66831 1.91697C3.69281 1.97822 3.70506 2.05989 3.70914 2.16197C3.90923 1.92922 4.11749 1.8108 4.33391 1.8108C4.485 1.8108 4.59934 1.85571 4.68509 1.94147C4.76676 2.02722 4.8076 2.15381 4.8076 2.31306V3.10934C4.8076 3.18693 4.81576 3.24818 4.82801 3.28493C4.83618 3.32577 4.86068 3.35435 4.89743 3.3666C4.93418 3.38293 4.98727 3.3911 5.05669 3.3911Z" fill="black"/>
<path d="M7.04958 3.39113C7.05367 3.39113 7.05775 3.3993 7.05775 3.41564C7.05775 3.43197 7.05367 3.44014 7.04958 3.44014C6.98016 3.44014 6.92708 3.44014 6.89033 3.43605L6.66982 3.43197L6.37172 3.43605C6.32681 3.44014 6.26964 3.44014 6.19205 3.44014C6.18797 3.44014 6.18388 3.43197 6.18388 3.41564C6.18388 3.3993 6.18797 3.39113 6.19205 3.39113C6.32272 3.39113 6.38806 3.36255 6.38806 3.30947C6.38806 3.28496 6.37581 3.25638 6.35131 3.22371L5.85312 2.5581L5.67345 2.70103V3.10938C5.67345 3.22371 5.68978 3.29721 5.72245 3.33397C5.75512 3.37072 5.82454 3.39113 5.92663 3.39113C5.93479 3.39113 5.93888 3.3993 5.93888 3.41564C5.93888 3.43197 5.93479 3.44014 5.92663 3.44014C5.85721 3.44014 5.80412 3.44014 5.76737 3.43605L5.54686 3.43197L5.31819 3.43605C5.28144 3.44014 5.22835 3.44014 5.1671 3.44014C5.15893 3.44014 5.15485 3.43197 5.15485 3.41564C5.15485 3.3993 5.15893 3.39113 5.1671 3.39113C5.26919 3.39113 5.33452 3.37072 5.36719 3.33397C5.39986 3.29721 5.41619 3.22371 5.41619 3.10938V1.00638C5.41619 0.90838 5.40802 0.83896 5.38761 0.794042C5.36719 0.749124 5.33452 0.728707 5.2896 0.728707C5.25285 0.728707 5.1916 0.749124 5.10993 0.785875H5.10585C5.0936 0.785875 5.08543 0.777708 5.08135 0.765458C5.07318 0.753208 5.07318 0.740957 5.08543 0.736874L5.6122 0.483698L5.63262 0.479614C5.64078 0.479614 5.64895 0.483698 5.6612 0.491865C5.66937 0.500032 5.67345 0.508199 5.67345 0.516366V2.63161L6.19205 2.19876C6.2778 2.12934 6.31864 2.07217 6.31864 2.01909C6.31864 1.98642 6.30231 1.96192 6.26555 1.9415C6.2288 1.92108 6.17163 1.91292 6.09813 1.91292C6.08996 1.91292 6.08588 1.90475 6.08588 1.88841C6.08588 1.87208 6.08996 1.86391 6.09813 1.86391C6.17572 1.86391 6.23289 1.86391 6.26964 1.868L6.57182 1.87208L6.84949 1.868C6.88624 1.86391 6.93933 1.86391 7.00058 1.86391C7.00466 1.86391 7.00875 1.87208 7.00875 1.88841C7.00875 1.90475 7.00466 1.91292 7.00058 1.91292C6.89441 1.91292 6.78007 1.93742 6.65348 1.98642C6.5269 2.0395 6.40031 2.11301 6.2778 2.21509L6.05321 2.39477L6.58407 3.10938C6.71882 3.29722 6.87399 3.39113 7.04958 3.39113Z" fill="black"/>
<path d="M8.40521 3.20339C8.41338 3.20339 8.42155 3.20748 8.42971 3.21564C8.4338 3.22789 8.4338 3.23606 8.42971 3.24423C8.24596 3.40757 8.04587 3.48924 7.82536 3.48924C7.6661 3.48924 7.52726 3.45248 7.41293 3.37898C7.29859 3.30956 7.21284 3.21156 7.15158 3.08905C7.09033 2.97063 7.06175 2.83996 7.06175 2.70112C7.06175 2.54187 7.10258 2.39486 7.18017 2.26011C7.25775 2.12535 7.35984 2.02327 7.4946 1.9416C7.62935 1.86401 7.77636 1.82726 7.93561 1.82726C8.09487 1.82726 8.21329 1.86809 8.29904 1.94568C8.38071 2.02735 8.42155 2.14169 8.42155 2.29278C8.42155 2.36628 8.40521 2.40303 8.37254 2.40303L7.36392 2.40711C7.35984 2.46837 7.35576 2.51328 7.35576 2.54595C7.35576 2.78279 7.41293 2.97472 7.52318 3.11764C7.63343 3.26056 7.79269 3.33406 7.99686 3.33406C8.07853 3.33406 8.14795 3.32181 8.20512 3.3014C8.25821 3.28098 8.32354 3.24831 8.40113 3.20339H8.40521ZM7.79677 1.90893C7.68244 1.90893 7.58852 1.94568 7.51501 2.02327C7.44151 2.10085 7.39251 2.21111 7.37209 2.34995L8.11529 2.33361C8.11529 2.19477 8.0867 2.0886 8.03362 2.0151C7.97645 1.94568 7.89886 1.90893 7.79677 1.90893Z" fill="black"/>
<path d="M9.72765 1.82726C9.78891 1.82726 9.84607 1.84359 9.90324 1.88035C9.95633 1.9171 9.98491 1.95793 9.98491 2.00693C9.98491 2.04368 9.97266 2.07635 9.94816 2.10085C9.91958 2.12944 9.88691 2.14169 9.84199 2.14169C9.81341 2.14169 9.79299 2.1376 9.77257 2.12535C9.75216 2.1131 9.73174 2.09677 9.70724 2.07635C9.67865 2.05593 9.65823 2.0396 9.63782 2.02735C9.6174 2.0151 9.58882 2.01102 9.56023 2.01102C9.52348 2.01102 9.49081 2.02327 9.45406 2.05185C9.41731 2.08044 9.35606 2.1376 9.27439 2.23152V3.10947C9.27439 3.18706 9.28664 3.24831 9.30706 3.28506C9.32747 3.3259 9.36422 3.35448 9.41731 3.36673C9.47039 3.38307 9.55615 3.39123 9.6664 3.39123C9.67457 3.39123 9.67865 3.3994 9.67865 3.41573C9.67865 3.43207 9.67457 3.44023 9.6664 3.44023C9.57657 3.44023 9.50306 3.44023 9.44998 3.43615L9.14372 3.43207L8.92321 3.43615C8.88646 3.44023 8.83337 3.44023 8.76804 3.44023C8.75987 3.44023 8.75579 3.43207 8.75579 3.41573C8.75579 3.3994 8.75987 3.39123 8.76804 3.39123C8.83746 3.39123 8.89054 3.38307 8.92729 3.36673C8.95996 3.35448 8.98038 3.3259 8.99671 3.28506C9.00488 3.24831 9.01305 3.18706 9.01305 3.10947V2.30911C9.01305 2.21927 9.0008 2.15394 8.98038 2.1131C8.95996 2.07227 8.92321 2.05185 8.87421 2.05185C8.83337 2.05185 8.75987 2.07227 8.65778 2.1131H8.6537C8.64145 2.1131 8.63328 2.10494 8.6292 2.09269C8.62512 2.08044 8.62512 2.07227 8.63737 2.06819L9.12738 1.83134L9.15188 1.82726C9.18047 1.82726 9.20497 1.85584 9.23355 1.9171C9.25805 1.97835 9.2703 2.06002 9.27439 2.15802C9.38464 2.03143 9.47448 1.9416 9.53981 1.89668C9.60515 1.85176 9.6664 1.82726 9.72765 1.82726Z" fill="black"/>
</svg>
