<svg viewBox="0 0 14 6" fill="none" xmlns="http://www.w3.org/2000/svg">
<path fill-rule="evenodd" clip-rule="evenodd" d="M1.18903 1.63237L1.51469 0.26053C1.5166 0.252814 1.52337 0.247167 1.53132 0.246849C1.53928 0.246451 1.54651 0.251383 1.54906 0.258939L1.90884 1.31769L2.90245 0.94319C2.91 0.940326 2.91851 0.942871 2.92321 0.949474C2.92798 0.955996 2.92774 0.964905 2.92265 0.97119L2.18805 1.88135L2.82751 3.16664C2.83093 3.17349 2.82958 3.18176 2.82425 3.18717C2.81884 3.19266 2.81057 3.19409 2.80373 3.19075L1.80702 2.70894L0.809601 4.11411C0.804749 4.12095 0.795843 4.1235 0.788127 4.12024C0.780412 4.11705 0.775956 4.10894 0.777388 4.10067L1.07131 2.42425L0.062751 1.57335C0.0567851 1.56834 0.0547973 1.56006 0.0577405 1.55283C0.0606837 1.54567 0.0680029 1.54121 0.0757189 1.54185L1.18903 1.63237Z" fill="black"/>
<path d="M4.02878 5.30598C4.02878 5.38868 4.03748 5.44526 4.05489 5.48444C4.06795 5.52361 4.09842 5.54973 4.1463 5.55843C4.18982 5.57584 4.25947 5.5802 4.35958 5.5802H4.77743C4.95153 5.5802 5.09517 5.52796 5.20834 5.41915C5.31715 5.31469 5.39115 5.17105 5.42597 4.98824C5.42597 4.97953 5.43467 4.97518 5.45208 4.97518C5.46514 4.97953 5.47385 4.98389 5.47385 4.99259C5.44773 5.24069 5.43467 5.44526 5.43467 5.61066C5.43467 5.63243 5.43032 5.64984 5.42162 5.65854C5.41291 5.6716 5.3955 5.67595 5.36938 5.67595H3.34977C3.34542 5.67595 3.34106 5.66725 3.34106 5.64984C3.34106 5.63243 3.34542 5.62372 3.34977 5.62372C3.45859 5.62372 3.53693 5.61502 3.58481 5.60196C3.63269 5.5889 3.66751 5.55843 3.68492 5.51491C3.70233 5.47573 3.71104 5.41044 3.71104 5.32339V3.30813C3.71104 3.22108 3.70233 3.15579 3.68492 3.11661C3.66751 3.07744 3.63269 3.04697 3.58481 3.02956C3.53693 3.0165 3.45859 3.0078 3.34977 3.0078C3.34542 3.0078 3.34106 2.99909 3.34106 2.98168C3.34106 2.96427 3.34542 2.95557 3.34977 2.95557L3.5674 2.95992C3.68927 2.96427 3.78938 2.96862 3.86773 2.96862C3.95043 2.96862 4.05489 2.96427 4.17677 2.95992L4.39005 2.95557C4.3944 2.95557 4.39875 2.96427 4.39875 2.98168C4.39875 2.99909 4.3944 3.0078 4.39005 3.0078C4.28558 3.0078 4.20724 3.0165 4.15936 3.02956C4.10713 3.04697 4.0723 3.07744 4.05489 3.11661C4.03748 3.16014 4.02878 3.22543 4.02878 3.31248V5.30598Z" fill="black"/>
<path d="M6.05252 3.46009C5.98723 3.46009 5.93935 3.44268 5.90453 3.40786C5.86536 3.37304 5.84795 3.32516 5.84795 3.25987C5.84795 3.20329 5.86536 3.15541 5.90453 3.12059C5.93935 3.08577 5.98723 3.06836 6.05252 3.06836C6.11346 3.06836 6.16134 3.08577 6.19616 3.12059C6.23098 3.15541 6.24839 3.20329 6.24839 3.25987C6.24839 3.32516 6.23098 3.37304 6.19616 3.40786C6.16134 3.44268 6.11346 3.46009 6.05252 3.46009ZM5.67819 5.67558C5.66949 5.67558 5.66514 5.66687 5.66514 5.64946C5.66514 5.63205 5.66949 5.62335 5.67819 5.62335C5.78701 5.62335 5.85665 5.60158 5.89147 5.56241C5.92629 5.52324 5.9437 5.44489 5.9437 5.32302V4.51343C5.9437 4.41332 5.935 4.33932 5.91324 4.29144C5.89147 4.24357 5.85665 4.2218 5.80442 4.2218C5.75654 4.2218 5.69125 4.24357 5.61291 4.28274H5.60855C5.5955 4.28274 5.58679 4.27403 5.58244 4.26098C5.57808 4.24792 5.57808 4.23486 5.59114 4.23051L6.17004 3.96065L6.18745 3.95629C6.19616 3.95629 6.20486 3.96065 6.21792 3.96935C6.22662 3.97806 6.23098 3.98676 6.23098 3.99547C6.23098 4.01723 6.23098 4.07381 6.22662 4.16957C6.22227 4.26533 6.22227 4.3785 6.22227 4.50908V5.32302C6.22227 5.40572 6.23098 5.471 6.24403 5.51018C6.25709 5.5537 6.27886 5.58417 6.31803 5.59723C6.3572 5.61464 6.41379 5.62335 6.48778 5.62335C6.49649 5.62335 6.50084 5.63205 6.50084 5.64946C6.50084 5.66687 6.49649 5.67558 6.48778 5.67558C6.41379 5.67558 6.3572 5.67558 6.31803 5.67122L6.08299 5.66687L5.83924 5.67122C5.80007 5.67558 5.74348 5.67558 5.67819 5.67558Z" fill="black"/>
<path d="M8.7302 5.6227C8.7389 5.6227 8.74325 5.6314 8.74325 5.64881C8.74325 5.66622 8.7389 5.67493 8.7302 5.67493C8.6562 5.67493 8.59962 5.67493 8.56044 5.67057L8.3254 5.66622L8.09036 5.67057C8.05119 5.67493 7.9946 5.67493 7.92496 5.67493C7.91626 5.67493 7.9119 5.66622 7.9119 5.64881C7.9119 5.6314 7.91626 5.6227 7.92496 5.6227C7.99896 5.6227 8.05554 5.61399 8.09471 5.59658C8.12953 5.58352 8.15565 5.55305 8.16871 5.50953C8.18177 5.47035 8.18612 5.40506 8.18612 5.32236V4.6303C8.18612 4.46055 8.15565 4.33867 8.09471 4.25597C8.02942 4.17763 7.92931 4.13845 7.79438 4.13845C7.71168 4.13845 7.62463 4.16022 7.53758 4.20374C7.44617 4.24727 7.36783 4.3082 7.29383 4.38655V5.32236C7.29383 5.40506 7.30254 5.47035 7.3156 5.50953C7.3243 5.55305 7.35042 5.58352 7.38959 5.59658C7.42876 5.61399 7.48535 5.6227 7.55934 5.6227C7.56805 5.6227 7.5724 5.6314 7.5724 5.64881C7.5724 5.66622 7.56805 5.67493 7.55934 5.67493C7.48535 5.67493 7.42876 5.67493 7.38959 5.67057L7.15455 5.66622L6.91951 5.67057C6.88033 5.67493 6.82375 5.67493 6.75411 5.67493C6.7454 5.67493 6.74105 5.66622 6.74105 5.64881C6.74105 5.6314 6.7454 5.6227 6.75411 5.6227C6.8281 5.6227 6.88469 5.61399 6.92386 5.59658C6.95868 5.58352 6.98044 5.55305 6.99785 5.50953C7.00656 5.47035 7.01526 5.40506 7.01526 5.32236V4.46925C7.01526 4.37349 7.00221 4.30385 6.98044 4.26033C6.95868 4.2168 6.91951 4.19504 6.86728 4.19504C6.82375 4.19504 6.7454 4.2168 6.63659 4.26033H6.63223C6.61918 4.26033 6.61047 4.25162 6.60612 4.23856C6.60177 4.22551 6.60177 4.2168 6.61482 4.21245L7.13714 3.96L7.16325 3.95564C7.19372 3.95564 7.21984 3.98611 7.25031 4.0514C7.27642 4.11669 7.28948 4.20374 7.29383 4.31256C7.50711 4.06446 7.72909 3.93823 7.95978 3.93823C8.12083 3.93823 8.2427 3.98611 8.33411 4.07752C8.42116 4.16892 8.46469 4.30385 8.46469 4.4736V5.32236C8.46469 5.40506 8.47339 5.47035 8.48645 5.50953C8.49515 5.55305 8.52127 5.58352 8.56044 5.59658C8.59962 5.61399 8.6562 5.6227 8.7302 5.6227Z" fill="black"/>
<path d="M10.854 5.62319C10.8584 5.62319 10.8627 5.6319 10.8627 5.64931C10.8627 5.66672 10.8584 5.67542 10.854 5.67542C10.78 5.67542 10.7234 5.67542 10.6843 5.67107L10.4492 5.66672L10.1315 5.67107C10.0836 5.67542 10.0227 5.67542 9.93998 5.67542C9.93563 5.67542 9.93127 5.66672 9.93127 5.64931C9.93127 5.6319 9.93563 5.62319 9.93998 5.62319C10.0793 5.62319 10.1489 5.59272 10.1489 5.53614C10.1489 5.51002 10.1358 5.47956 10.1097 5.44474L9.57871 4.73526L9.3872 4.8876V5.32286C9.3872 5.44474 9.40461 5.52308 9.43943 5.56226C9.47425 5.60143 9.54824 5.62319 9.65706 5.62319C9.66576 5.62319 9.67012 5.6319 9.67012 5.64931C9.67012 5.66672 9.66576 5.67542 9.65706 5.67542C9.58306 5.67542 9.52648 5.67542 9.48731 5.67107L9.25227 5.66672L9.00852 5.67107C8.96935 5.67542 8.91276 5.67542 8.84747 5.67542C8.83877 5.67542 8.83441 5.66672 8.83441 5.64931C8.83441 5.6319 8.83877 5.62319 8.84747 5.62319C8.95629 5.62319 9.02593 5.60143 9.06075 5.56226C9.09557 5.52308 9.11298 5.44474 9.11298 5.32286V3.08126C9.11298 2.9768 9.10428 2.90281 9.08251 2.85493C9.06075 2.80705 9.02593 2.78529 8.97805 2.78529C8.93888 2.78529 8.87359 2.80705 8.78654 2.84622H8.78218C8.76912 2.84622 8.76042 2.83752 8.75607 2.82446C8.74736 2.8114 8.74736 2.79834 8.76042 2.79399L9.32191 2.52413L9.34367 2.51978C9.35238 2.51978 9.36108 2.52413 9.37414 2.53283C9.38284 2.54154 9.3872 2.55024 9.3872 2.55895V4.81361L9.93998 4.35223C10.0314 4.27823 10.0749 4.2173 10.0749 4.16071C10.0749 4.12589 10.0575 4.09978 10.0183 4.07801C9.97915 4.05625 9.91822 4.04754 9.83987 4.04754C9.83116 4.04754 9.82681 4.03884 9.82681 4.02143C9.82681 4.00402 9.83116 3.99531 9.83987 3.99531C9.92257 3.99531 9.98351 3.99531 10.0227 3.99967L10.3448 4.00402L10.6408 3.99967C10.6799 3.99531 10.7365 3.99531 10.8018 3.99531C10.8061 3.99531 10.8105 4.00402 10.8105 4.02143C10.8105 4.03884 10.8061 4.04754 10.8018 4.04754C10.6886 4.04754 10.5668 4.07366 10.4318 4.12589C10.2969 4.18248 10.162 4.26082 10.0314 4.36964L9.79199 4.56115L10.3578 5.32286C10.5015 5.52308 10.6669 5.62319 10.854 5.62319Z" fill="black"/>
<path d="M12.2994 5.42215C12.3081 5.42215 12.3169 5.42651 12.3256 5.43521C12.3299 5.44827 12.3299 5.45697 12.3256 5.46568C12.1297 5.63978 11.9164 5.72684 11.6814 5.72684C11.5116 5.72684 11.3636 5.68766 11.2418 5.60932C11.1199 5.53532 11.0285 5.43086 10.9632 5.30028C10.8979 5.17405 10.8674 5.03477 10.8674 4.88678C10.8674 4.71703 10.911 4.56034 10.9937 4.4167C11.0764 4.27306 11.1852 4.16425 11.3288 4.0772C11.4724 3.9945 11.6291 3.95532 11.7989 3.95532C11.9686 3.95532 12.0949 3.99885 12.1863 4.08155C12.2733 4.1686 12.3169 4.29047 12.3169 4.45152C12.3169 4.52987 12.2994 4.56904 12.2646 4.56904L11.1895 4.57339C11.1852 4.63868 11.1808 4.68656 11.1808 4.72138C11.1808 4.97383 11.2418 5.17841 11.3593 5.33075C11.4768 5.48309 11.6466 5.56144 11.8642 5.56144C11.9512 5.56144 12.0252 5.54838 12.0862 5.52662C12.1427 5.50485 12.2124 5.47003 12.2951 5.42215H12.2994ZM11.6509 4.04237C11.529 4.04237 11.4289 4.08155 11.3506 4.16425C11.2722 4.24695 11.22 4.36447 11.1982 4.51246L11.9904 4.49505C11.9904 4.34706 11.9599 4.23389 11.9034 4.15554C11.8424 4.08155 11.7597 4.04237 11.6509 4.04237Z" fill="black"/>
<path d="M13.7089 3.95532C13.7741 3.95532 13.8351 3.97273 13.896 4.01191C13.9526 4.05108 13.9831 4.09461 13.9831 4.14684C13.9831 4.18601 13.97 4.22083 13.9439 4.24695C13.9134 4.27742 13.8786 4.29047 13.8307 4.29047C13.8003 4.29047 13.7785 4.28612 13.7567 4.27306C13.735 4.26001 13.7132 4.2426 13.6871 4.22083C13.6566 4.19907 13.6349 4.18166 13.6131 4.1686C13.5913 4.15554 13.5609 4.15119 13.5304 4.15119C13.4912 4.15119 13.4564 4.16425 13.4172 4.19472C13.3781 4.22518 13.3128 4.28612 13.2257 4.38623V5.32204C13.2257 5.40474 13.2388 5.47003 13.2605 5.50921C13.2823 5.55273 13.3215 5.5832 13.3781 5.59626C13.4346 5.61367 13.526 5.62237 13.6436 5.62237C13.6523 5.62237 13.6566 5.63108 13.6566 5.64849C13.6566 5.6659 13.6523 5.67461 13.6436 5.67461C13.5478 5.67461 13.4695 5.67461 13.4129 5.67025L13.0864 5.6659L12.8514 5.67025C12.8122 5.67461 12.7556 5.67461 12.686 5.67461C12.6773 5.67461 12.6729 5.6659 12.6729 5.64849C12.6729 5.63108 12.6773 5.62237 12.686 5.62237C12.76 5.62237 12.8166 5.61367 12.8557 5.59626C12.8906 5.5832 12.9123 5.55273 12.9297 5.50921C12.9384 5.47003 12.9471 5.40474 12.9471 5.32204V4.46893C12.9471 4.37317 12.9341 4.30353 12.9123 4.26001C12.8906 4.21648 12.8514 4.19472 12.7992 4.19472C12.7556 4.19472 12.6773 4.21648 12.5685 4.26001H12.5641C12.5511 4.26001 12.5424 4.2513 12.538 4.23824C12.5337 4.22518 12.5337 4.21648 12.5467 4.21213L13.069 3.95967L13.0951 3.95532C13.1256 3.95532 13.1517 3.98579 13.1822 4.05108C13.2083 4.11637 13.2214 4.20342 13.2257 4.30788C13.3432 4.17295 13.439 4.0772 13.5086 4.02932C13.5783 3.98144 13.6436 3.95532 13.7089 3.95532Z" fill="black"/>
</svg>
