<svg viewBox="0 0 14 17" fill="none" xmlns="http://www.w3.org/2000/svg">
<path fill-rule="evenodd" clip-rule="evenodd" d="M8.50002 6.62661L6.40376 1.02698C6.39134 0.99329 6.36049 0.974032 6.32803 0.980579C6.29553 0.986759 6.26916 1.01682 6.26342 1.05427L5.50001 7.03152L0.18926 6.57668C0.156873 6.57108 0.123896 6.5914 0.108866 6.62661C0.0934652 6.66153 0.0998366 6.70242 0.124297 6.72629L5.00001 9.99997L2.84195 15.7651C2.83223 15.8001 2.84273 15.8369 2.86763 15.8565C2.8929 15.8764 2.92732 15.8747 2.95304 15.8524L7.00002 12L11.6012 16.1054C11.625 16.1321 11.6627 16.1348 11.692 16.112C11.7214 16.0895 11.7345 16.0476 11.7237 16.0109L9.51464 9.56834L13.0891 5.62413C13.1103 5.59498 13.1133 5.55479 13.097 5.52434C13.0807 5.49426 13.0483 5.48107 13.0174 5.49178L8.50002 6.62661Z" fill="black"/>
</svg>
