<svg viewBox="0 0 8 10" fill="none" xmlns="http://www.w3.org/2000/svg">
<path fill-rule="evenodd" clip-rule="evenodd" d="M3.28943 3.59474L4.10823 0.14554C4.11303 0.12614 4.13003 0.11194 4.15003 0.11114C4.17003 0.11014 4.18823 0.12254 4.19463 0.14154L5.09923 2.80354L7.59743 1.86194C7.61643 1.85474 7.63783 1.86114 7.64963 1.87774C7.66163 1.89414 7.66103 1.91654 7.64823 1.93234L5.80123 4.22074L7.40903 7.45234C7.41763 7.46954 7.41423 7.49034 7.40083 7.50394C7.38723 7.51774 7.36643 7.52134 7.34923 7.51294L4.84322 6.30154L2.33542 9.83454C2.32322 9.85174 2.30083 9.85814 2.28143 9.84994C2.26203 9.84194 2.25083 9.82154 2.25443 9.80074L2.99343 5.58574L0.457627 3.44634C0.442627 3.43374 0.43763 3.41294 0.44503 3.39474C0.45243 3.37674 0.470832 3.36554 0.490232 3.36714L3.28943 3.59474Z" fill="black"/>
</svg>