<svg viewBox="0 0 31 36" fill="none" xmlns="http://www.w3.org/2000/svg">
<path fill-rule="evenodd" clip-rule="evenodd" d="M25.3349 8.9267L26.356 4.32418C26.362 4.29829 26.3832 4.27934 26.4081 4.27827C26.4331 4.27694 26.4558 4.29349 26.4638 4.31884L27.5919 7.87094L30.7075 6.61449C30.7312 6.60489 30.7579 6.61343 30.7726 6.63558C30.7875 6.65746 30.7868 6.68735 30.7708 6.70843L28.4674 9.76201L30.4725 14.0742C30.4832 14.0971 30.479 14.1249 30.4623 14.143C30.4453 14.1614 30.4194 14.1662 30.3979 14.155L27.2726 12.5386L24.1451 17.2529C24.1299 17.2759 24.102 17.2844 24.0778 17.2735C24.0536 17.2628 24.0396 17.2356 24.0441 17.2078L24.9657 11.5834L21.8032 8.72868C21.7845 8.71186 21.7783 8.68411 21.7875 8.65982C21.7968 8.6358 21.8197 8.62086 21.8439 8.62299L25.3349 8.9267Z" fill="black"/>
<path fill-rule="evenodd" clip-rule="evenodd" d="M21.2171 23.2496L19.1807 16.0833C19.1677 16.0455 19.1316 16.0202 19.092 16.0222C19.0523 16.0238 19.0187 16.0518 19.0095 16.0908L17.7591 22.3358L12.6046 20.129C12.5658 20.118 12.5247 20.1346 12.5044 20.1698C12.4837 20.2046 12.4889 20.2492 12.5171 20.2784L16.851 25.0014L13.9863 31.2398C13.9724 31.2756 13.9829 31.3164 14.0118 31.3412C14.0412 31.3662 14.0829 31.3697 14.1153 31.3499L19.1807 27.5L24.4298 35.0813C24.457 35.1134 24.5023 35.1222 24.5391 35.1024C24.5759 35.0829 24.5944 35.0403 24.5835 34.9994L22 26L26.9817 22.0106C27.009 21.9828 27.0151 21.9404 26.9972 21.9055C26.9794 21.8709 26.941 21.8519 26.903 21.8585L21.2171 23.2496Z" fill="black"/>
<path fill-rule="evenodd" clip-rule="evenodd" d="M6.42502 6.63325L9.47998 0.689841C9.49758 0.656499 9.53899 0.638077 9.58161 0.645488C9.62431 0.652534 9.65806 0.683282 9.66432 0.720862L10.5575 5.98958L16.2042 5.37634C16.2472 5.37161 16.29 5.3928 16.3086 5.42839C16.3277 5.4637 16.3179 5.50439 16.2847 5.5276L11.4994 8.89233L13.662 15.5145C13.6736 15.5498 13.6585 15.5863 13.6249 15.6053C13.5908 15.6245 13.5455 15.6218 13.5123 15.5988L8.67461 12.2719L2.01396 17.6192C1.98155 17.6452 1.93172 17.647 1.89382 17.6234C1.85584 17.6001 1.83997 17.5579 1.85556 17.5214L5.03532 10.1424L0.490442 5.10545C0.463537 5.07576 0.46094 5.03551 0.483575 5.00552C0.506134 4.97589 0.549363 4.96357 0.589796 4.97511L6.42502 6.63325Z" fill="black"/>
</svg>
